<?xml version="1.0" encoding="utf-8"?>
<!-- Generator: Adobe Illustrator 24.0.1, SVG Export Plug-In . SVG Version: 6.00 Build 0)  -->
<svg version="1.1" id="Слой_1" xmlns="http://www.w3.org/2000/svg" xmlns:xlink="http://www.w3.org/1999/xlink" x="0px" y="0px"
	 viewBox="0 0 1920 1080" style="enable-background:new 0 0 1920 1080;" xml:space="preserve">
<style type="text/css">
	.st0{fill:#FCFCFC;stroke:#FCFCFC;stroke-miterlimit:10;}
	.st1{fill:#FCFCFC;}
	.st2{stroke:#000000;stroke-miterlimit:10;}
</style>
<g>
	<rect x="794.5" y="497" width="331" height="86"/>
	<g>
		<path class="st0" d="M827.2,515.11v51.61h-2.88v-51.61h-4.01v-1.83h10.93v1.83H827.2z"/>
		<path class="st0" d="M844.92,566.72v-27.21h-4.89v27.21h-2.88v-53.44h2.88v24.43h4.89v-24.43h2.88v53.44H844.92z"/>
		<path class="st0" d="M855.29,566.72v-53.44h8.33v1.83h-5.45v22.61h5.24v1.79h-5.24V565h5.52v1.72H855.29z"/>
	</g>
	<g>
		<path class="st0" d="M1065.05,561.62c0,0.84-0.04,1.61-0.11,2.29c-0.07,0.68-0.38,1.31-0.91,1.9c-0.54,0.59-1.16,0.93-1.86,1.02
			c-0.7,0.09-1.48,0.14-2.32,0.14h-5.45v-53.44h5.31c0.8,0,1.52,0.05,2.18,0.16s1.28,0.42,1.86,0.93c0.35,0.3,0.62,0.66,0.79,1.07
			c0.18,0.41,0.3,0.81,0.37,1.21c0.07,0.4,0.11,0.77,0.12,1.13s0.02,0.63,0.02,0.84v14.98c0,0.61-0.03,1.19-0.09,1.74
			c-0.06,0.55-0.25,1-0.58,1.35c-0.42,0.47-0.84,0.83-1.25,1.07s-0.85,0.44-1.32,0.58c0.33,0.07,0.6,0.15,0.81,0.23
			c0.21,0.08,0.4,0.18,0.56,0.28s0.31,0.22,0.44,0.35c0.13,0.13,0.29,0.28,0.47,0.44c0.45,0.4,0.71,0.86,0.81,1.39
			s0.14,1.1,0.14,1.71V561.62z M1062.17,518.45c0-0.59-0.03-1.08-0.09-1.49c-0.06-0.41-0.35-0.83-0.86-1.25
			c-0.4-0.33-0.81-0.52-1.25-0.58c-0.43-0.06-0.92-0.09-1.46-0.09h-1.23v22.99h1.37c0.33,0,0.7-0.04,1.13-0.11s0.76-0.19,1.02-0.35
			c0.42-0.23,0.73-0.53,0.93-0.88s0.33-0.74,0.4-1.16s0.09-0.86,0.07-1.3c-0.02-0.44-0.04-0.87-0.04-1.27V518.45z M1062.17,544.01
			c0-0.26,0.01-0.54,0.02-0.84c0.01-0.3-0.01-0.62-0.07-0.93s-0.16-0.64-0.3-0.97c-0.14-0.33-0.36-0.64-0.67-0.95
			c-0.28-0.28-0.66-0.48-1.13-0.6c-0.47-0.12-0.88-0.18-1.23-0.18h-1.51v25.98h1.93c0.47,0,0.84-0.05,1.11-0.16s0.57-0.29,0.9-0.54
			c0.47-0.37,0.74-0.84,0.83-1.39c0.08-0.55,0.12-1.13,0.12-1.74V544.01z"/>
		<path class="st0" d="M1080.37,566.96v-27.21h-4.89v27.21h-2.88v-49.68c0-0.91,0.15-1.65,0.44-2.21s0.68-1,1.16-1.3
			c0.48-0.3,1.04-0.5,1.67-0.6c0.63-0.09,1.29-0.14,1.97-0.14c1.69,0,3.01,0.41,3.97,1.23c0.96,0.82,1.44,1.92,1.44,3.3v49.39
			H1080.37z M1080.37,517.43c0-0.37-0.04-0.74-0.11-1.11c-0.07-0.36-0.19-0.69-0.37-0.97s-0.43-0.51-0.77-0.69s-0.77-0.26-1.28-0.26
			c-0.56,0-1,0.09-1.3,0.26s-0.54,0.41-0.7,0.7c-0.16,0.29-0.26,0.63-0.3,1c-0.04,0.38-0.05,0.75-0.05,1.13v20.46h4.89V517.43z"/>
		<path class="st0" d="M1098.72,566.96v-23.34c0-0.49-0.02-1-0.05-1.51c-0.04-0.52-0.28-1-0.72-1.44c-0.4-0.35-0.8-0.58-1.2-0.69
			s-0.96-0.16-1.69-0.16h-1.44v27.14h-2.88v-53.44h5.03c0.82,0,1.61,0.11,2.36,0.32s1.43,0.66,2.04,1.34
			c0.54,0.61,0.88,1.17,1.02,1.69c0.14,0.52,0.21,1.18,0.21,2v15.19c0,0.73-0.05,1.36-0.14,1.9c-0.09,0.54-0.41,1.05-0.95,1.55
			c-0.35,0.33-0.71,0.59-1.09,0.79c-0.38,0.2-0.84,0.39-1.41,0.58c0.33-0.05,0.8,0.02,1.41,0.19s1.11,0.52,1.51,1.04
			c0.45,0.54,0.7,1.08,0.77,1.62c0.07,0.54,0.11,1.17,0.11,1.9v23.34H1098.72z M1098.51,519.01c0-0.61-0.04-1.15-0.12-1.63
			c-0.08-0.48-0.36-0.99-0.83-1.53c-0.21-0.26-0.53-0.46-0.95-0.6s-0.87-0.21-1.34-0.21h-1.65v23.2h1.79c0.47,0,0.9-0.11,1.28-0.32
			s0.72-0.47,1-0.77c0.23-0.23,0.41-0.52,0.53-0.84c0.12-0.33,0.19-0.67,0.23-1.02s0.05-0.7,0.05-1.04c0-0.34,0-0.64,0-0.9V519.01z"
			/>
	</g>
	<rect x="889" y="487" class="st1" width="142" height="106"/>
	<g>
		<path class="st2" d="M927.54,561.38c0,0.84-0.04,1.61-0.11,2.29c-0.07,0.68-0.38,1.31-0.91,1.9c-0.54,0.59-1.16,0.93-1.86,1.02
			c-0.7,0.09-1.48,0.14-2.32,0.14h-5.45v-53.44h5.31c0.8,0,1.52,0.05,2.18,0.16s1.28,0.42,1.86,0.93c0.35,0.3,0.62,0.66,0.79,1.07
			c0.18,0.41,0.3,0.81,0.37,1.21c0.07,0.4,0.11,0.77,0.12,1.13s0.02,0.63,0.02,0.84v14.98c0,0.61-0.03,1.19-0.09,1.74
			c-0.06,0.55-0.25,1-0.58,1.35c-0.42,0.47-0.84,0.83-1.25,1.07s-0.85,0.44-1.32,0.58c0.33,0.07,0.6,0.15,0.81,0.23
			c0.21,0.08,0.4,0.18,0.56,0.28s0.31,0.22,0.44,0.35c0.13,0.13,0.29,0.28,0.47,0.44c0.45,0.4,0.71,0.86,0.81,1.39
			s0.14,1.1,0.14,1.71V561.38z M924.66,518.2c0-0.59-0.03-1.08-0.09-1.49c-0.06-0.41-0.35-0.83-0.86-1.25
			c-0.4-0.33-0.81-0.52-1.25-0.58c-0.43-0.06-0.92-0.09-1.46-0.09h-1.23v22.99h1.37c0.33,0,0.7-0.04,1.13-0.11s0.76-0.19,1.02-0.35
			c0.42-0.23,0.73-0.53,0.93-0.88s0.33-0.74,0.4-1.16s0.09-0.86,0.07-1.3c-0.02-0.44-0.04-0.87-0.04-1.27V518.2z M924.66,543.76
			c0-0.26,0.01-0.54,0.02-0.84c0.01-0.3-0.01-0.62-0.07-0.93s-0.16-0.64-0.3-0.97c-0.14-0.33-0.36-0.64-0.67-0.95
			c-0.28-0.28-0.66-0.48-1.13-0.6c-0.47-0.12-0.88-0.18-1.23-0.18h-1.51v25.98h1.93c0.47,0,0.84-0.05,1.11-0.16s0.57-0.29,0.9-0.54
			c0.47-0.37,0.74-0.84,0.83-1.39c0.08-0.55,0.12-1.13,0.12-1.74V543.76z"/>
		<path class="st2" d="M935.09,566.72v-53.44h2.88v53.44H935.09z"/>
		<path class="st2" d="M955.01,565.75c-0.74,0.97-2.04,1.46-3.92,1.46c-0.98,0-1.83-0.09-2.55-0.26s-1.3-0.47-1.76-0.9
			s-0.79-0.97-1-1.65c-0.21-0.68-0.32-1.53-0.32-2.57v-12.41h2.88v12.83c0,1.17,0.18,2.06,0.54,2.67c0.36,0.61,1.07,0.91,2.13,0.91
			c0.54,0,0.96-0.11,1.25-0.33c0.29-0.22,0.51-0.51,0.65-0.86s0.23-0.74,0.26-1.18c0.04-0.43,0.05-0.86,0.05-1.28V550.3
			c0-0.35-0.01-0.67-0.04-0.97c-0.02-0.29-0.05-0.57-0.09-0.83c-0.04-0.26-0.09-0.53-0.18-0.83c-0.08-0.29-0.17-0.62-0.26-0.97
			c-0.19-0.54-0.38-1-0.56-1.39s-0.39-0.84-0.6-1.35l-4.61-10.51c-0.33-0.75-0.57-1.44-0.72-2.06c-0.15-0.62-0.3-1.33-0.44-2.13
			c-0.14-0.82-0.22-1.52-0.25-2.09c-0.02-0.57-0.04-1.27-0.04-2.09v-7.77c0-1.03,0.13-1.85,0.39-2.44s0.63-1.05,1.11-1.37
			s1.05-0.52,1.71-0.6c0.66-0.08,1.38-0.12,2.18-0.12c0.66,0,1.29,0.08,1.9,0.25c0.61,0.16,1.14,0.43,1.6,0.79
			c0.46,0.36,0.82,0.82,1.09,1.37c0.27,0.55,0.4,1.21,0.4,1.99v12.3h-2.88v-10.51c0-0.23,0.01-0.62,0.02-1.14s-0.05-1.06-0.18-1.6
			c-0.13-0.54-0.36-1.02-0.7-1.44s-0.85-0.63-1.53-0.63c-0.63,0-1.11,0.14-1.42,0.4c-0.32,0.27-0.53,0.6-0.65,0.98
			s-0.17,0.78-0.16,1.18c0.01,0.4,0.02,0.72,0.02,0.95v6.43c0,0.52,0.01,0.99,0.02,1.42c0.01,0.43,0.04,0.86,0.07,1.28
			s0.09,0.85,0.18,1.28c0.08,0.43,0.18,0.9,0.3,1.39c0.14,0.68,0.33,1.3,0.56,1.85c0.23,0.55,0.48,1.12,0.74,1.71l5.03,11.43
			c0.16,0.4,0.3,0.77,0.4,1.13s0.19,0.73,0.26,1.13c0.12,0.56,0.18,1.04,0.19,1.42s0.02,0.87,0.02,1.46v11.71
			C956.11,563.3,955.74,564.78,955.01,565.75z"/>
		<path class="st2" d="M971.37,566.72v-27.21h-4.89v27.21h-2.88v-53.44h2.88v24.43h4.89v-24.43h2.88v53.44H971.37z"/>
		<polygon class="st2" points="982.05,513.28 981.13,518.8 982.77,518.8 984.63,513.28 		"/>
		<path class="st2" d="M1002.01,565.75c-0.74,0.97-2.04,1.46-3.92,1.46c-0.98,0-1.83-0.09-2.55-0.26s-1.3-0.47-1.76-0.9
			s-0.79-0.97-1-1.65c-0.21-0.68-0.32-1.53-0.32-2.57v-12.41h2.88v12.83c0,1.17,0.18,2.06,0.54,2.67c0.36,0.61,1.07,0.91,2.13,0.91
			c0.54,0,0.96-0.11,1.25-0.33c0.29-0.22,0.51-0.51,0.65-0.86s0.23-0.74,0.26-1.18c0.04-0.43,0.05-0.86,0.05-1.28V550.3
			c0-0.35-0.01-0.67-0.04-0.97c-0.02-0.29-0.05-0.57-0.09-0.83c-0.04-0.26-0.09-0.53-0.18-0.83c-0.08-0.29-0.17-0.62-0.26-0.97
			c-0.19-0.54-0.38-1-0.56-1.39s-0.39-0.84-0.6-1.35l-4.61-10.51c-0.33-0.75-0.57-1.44-0.72-2.06c-0.15-0.62-0.3-1.33-0.44-2.13
			c-0.14-0.82-0.22-1.52-0.25-2.09c-0.02-0.57-0.04-1.27-0.04-2.09v-7.77c0-1.03,0.13-1.85,0.39-2.44s0.63-1.05,1.11-1.37
			s1.05-0.52,1.71-0.6c0.66-0.08,1.38-0.12,2.18-0.12c0.66,0,1.29,0.08,1.9,0.25c0.61,0.16,1.14,0.43,1.6,0.79
			c0.46,0.36,0.82,0.82,1.09,1.37c0.27,0.55,0.4,1.21,0.4,1.99v12.3h-2.88v-10.51c0-0.23,0.01-0.62,0.02-1.14s-0.05-1.06-0.18-1.6
			c-0.13-0.54-0.36-1.02-0.7-1.44s-0.85-0.63-1.53-0.63c-0.63,0-1.11,0.14-1.42,0.4c-0.32,0.27-0.53,0.6-0.65,0.98
			s-0.17,0.78-0.16,1.18c0.01,0.4,0.02,0.72,0.02,0.95v6.43c0,0.52,0.01,0.99,0.02,1.42c0.01,0.43,0.04,0.86,0.07,1.28
			s0.09,0.85,0.18,1.28c0.08,0.43,0.18,0.9,0.3,1.39c0.14,0.68,0.33,1.3,0.56,1.85c0.23,0.55,0.48,1.12,0.74,1.71l5.03,11.43
			c0.16,0.4,0.3,0.77,0.4,1.13s0.19,0.73,0.26,1.13c0.12,0.56,0.18,1.04,0.19,1.42s0.02,0.87,0.02,1.46v11.71
			C1003.11,563.3,1002.74,564.78,1002.01,565.75z"/>
	</g>
</g>
</svg>
