<svg id="Слой_1" data-name="Слой 1" xmlns="http://www.w3.org/2000/svg" viewBox="0 0 331 86"><defs><style>.cls-1,.cls-2{fill:#fcfcfc;}.cls-1{stroke:#fcfcfc;}.cls-1,.cls-3{stroke-miterlimit:10;}.cls-3{stroke:#000;}</style></defs><title>TBB 1</title><rect width="331" height="86"/><path class="cls-1" d="M827.2,515.11v51.61h-2.88V515.11h-4v-1.83h10.94v1.83Z" transform="translate(-794.5 -497)"/><path class="cls-1" d="M844.92,566.72V539.51H840v27.21h-2.88V513.28H840v24.43h4.89V513.28h2.88v53.44Z" transform="translate(-794.5 -497)"/><path class="cls-1" d="M855.29,566.72V513.28h8.33v1.83h-5.45v22.6h5.24v1.8h-5.24V565h5.52v1.72Z" transform="translate(-794.5 -497)"/><path class="cls-1" d="M1065.05,561.62a22.53,22.53,0,0,1-.11,2.29,3.22,3.22,0,0,1-.91,1.89,3,3,0,0,1-1.86,1,16.72,16.72,0,0,1-2.32.14h-5.45V513.53h5.31a13.15,13.15,0,0,1,2.17.16,3.64,3.64,0,0,1,1.87.93,3,3,0,0,1,.79,1.07,5.77,5.77,0,0,1,.37,1.21A7.91,7.91,0,0,1,1065,518c0,.35,0,.63,0,.84v15a16.06,16.06,0,0,1-.09,1.74,2.26,2.26,0,0,1-.58,1.35,5.37,5.37,0,0,1-1.25,1.07,5.57,5.57,0,0,1-1.32.58,5.53,5.53,0,0,1,.81.23,3.78,3.78,0,0,1,.57.28,3.13,3.13,0,0,1,.44.36c.12.12.28.27.47.43a2.5,2.5,0,0,1,.81,1.39,10.2,10.2,0,0,1,.14,1.71Zm-2.88-43.17a10.43,10.43,0,0,0-.09-1.49,2.14,2.14,0,0,0-.86-1.25,2.5,2.5,0,0,0-1.25-.58,10.68,10.68,0,0,0-1.46-.09h-1.23v23h1.37a7,7,0,0,0,1.13-.1,2.54,2.54,0,0,0,1-.36,2.28,2.28,0,0,0,.94-.87,3.55,3.55,0,0,0,.4-1.16,6.32,6.32,0,0,0,.07-1.31q0-.66,0-1.26Zm0,25.56c0-.26,0-.54,0-.85a3.72,3.72,0,0,0-.07-.93,4.08,4.08,0,0,0-.3-1,3,3,0,0,0-.66-.95,2.4,2.4,0,0,0-1.13-.6,5.07,5.07,0,0,0-1.23-.18h-1.51v26h1.93a3.3,3.3,0,0,0,1.11-.15,3.82,3.82,0,0,0,.9-.55,2.11,2.11,0,0,0,.82-1.39,10.78,10.78,0,0,0,.13-1.74Z" transform="translate(-794.5 -497)"/><path class="cls-1" d="M1080.37,567V539.75h-4.88V567h-2.89V517.29a4.9,4.9,0,0,1,.44-2.22,3.42,3.42,0,0,1,1.16-1.3,4.26,4.26,0,0,1,1.67-.59,12.69,12.69,0,0,1,2-.14,5.91,5.91,0,0,1,4,1.23,4.1,4.1,0,0,1,1.45,3.3V567Zm0-49.53a6,6,0,0,0-.1-1.11,2.91,2.91,0,0,0-.37-1,2,2,0,0,0-.77-.69,2.75,2.75,0,0,0-1.29-.26,2.6,2.6,0,0,0-1.3.26,1.88,1.88,0,0,0-.7.7,2.39,2.39,0,0,0-.3,1,10.49,10.49,0,0,0,0,1.12V538h4.88Z" transform="translate(-794.5 -497)"/><path class="cls-1" d="M1098.72,567V543.62c0-.49,0-1,0-1.51a2.26,2.26,0,0,0-.72-1.44,3.1,3.1,0,0,0-1.2-.69,7.23,7.23,0,0,0-1.69-.16h-1.44V567h-2.88V513.53h5a8.66,8.66,0,0,1,2.35.31,4.31,4.31,0,0,1,2,1.34,4.39,4.39,0,0,1,1,1.69,7.79,7.79,0,0,1,.21,2v15.19a10.61,10.61,0,0,1-.14,1.9,2.73,2.73,0,0,1-1,1.54,4.63,4.63,0,0,1-1.09.79,9.22,9.22,0,0,1-1.4.59,3.46,3.46,0,0,1,1.4.19,2.79,2.79,0,0,1,1.51,1,3.17,3.17,0,0,1,.78,1.61,15.15,15.15,0,0,1,.1,1.9V567Zm-.21-48a10,10,0,0,0-.12-1.63,3.33,3.33,0,0,0-.83-1.53,2,2,0,0,0-1-.6,4.21,4.21,0,0,0-1.33-.21h-1.66v23.2h1.8a2.66,2.66,0,0,0,1.28-.31,3.89,3.89,0,0,0,1-.78,2.15,2.15,0,0,0,.53-.84,4.44,4.44,0,0,0,.23-1c0-.35,0-.7,0-1V519Z" transform="translate(-794.5 -497)"/><rect class="cls-2" x="94.5" width="142" height="86"/><path class="cls-3" d="M927.54,561.38a22.33,22.33,0,0,1-.11,2.28,3.28,3.28,0,0,1-.91,1.9,3.1,3.1,0,0,1-1.86,1,18.43,18.43,0,0,1-2.32.14h-5.45V513.28h5.31a13.36,13.36,0,0,1,2.18.16,3.73,3.73,0,0,1,1.86.93,3,3,0,0,1,.79,1.07,5.31,5.31,0,0,1,.37,1.22,7.78,7.78,0,0,1,.12,1.12c0,.35,0,.63,0,.85v15a16.06,16.06,0,0,1-.09,1.74,2.31,2.31,0,0,1-.58,1.36,5.9,5.9,0,0,1-1.25,1.07,6,6,0,0,1-1.32.58,4.51,4.51,0,0,1,.81.23,3,3,0,0,1,.57.28,2.51,2.51,0,0,1,.44.35c.12.13.28.27.47.44a2.41,2.41,0,0,1,.81,1.39,10,10,0,0,1,.14,1.7Zm-2.88-43.18a10.53,10.53,0,0,0-.09-1.49,2.14,2.14,0,0,0-.86-1.25,2.5,2.5,0,0,0-1.25-.58,10.68,10.68,0,0,0-1.46-.09h-1.23v23h1.37a7.14,7.14,0,0,0,1.13-.11,2.83,2.83,0,0,0,1-.35,2.4,2.4,0,0,0,.93-.88,3.47,3.47,0,0,0,.4-1.16,6.23,6.23,0,0,0,.07-1.3c0-.45,0-.87,0-1.27Zm0,25.56c0-.26,0-.54,0-.84a3.65,3.65,0,0,0-.07-.93,4.15,4.15,0,0,0-.3-1,3.14,3.14,0,0,0-.66-.95,2.4,2.4,0,0,0-1.13-.6,5.54,5.54,0,0,0-1.23-.17h-1.51v26h1.93a3.26,3.26,0,0,0,1.11-.16,3.82,3.82,0,0,0,.9-.55,2.09,2.09,0,0,0,.82-1.38,10.78,10.78,0,0,0,.13-1.74Z" transform="translate(-794.5 -497)"/><path class="cls-3" d="M935.09,566.72V513.28H938v53.44Z" transform="translate(-794.5 -497)"/><path class="cls-3" d="M955,565.75c-.74,1-2,1.46-3.92,1.46a11.06,11.06,0,0,1-2.55-.26,4,4,0,0,1-1.76-.9,3.62,3.62,0,0,1-1-1.65,8.86,8.86,0,0,1-.32-2.57V549.42h2.88v12.83a5.34,5.34,0,0,0,.55,2.68,2.26,2.26,0,0,0,2.13.91,2,2,0,0,0,1.24-.33,2,2,0,0,0,.65-.87,4.18,4.18,0,0,0,.27-1.17c0-.44.05-.86.05-1.29V550.3c0-.35,0-.67,0-1s-.06-.56-.09-.82a7.85,7.85,0,0,0-.18-.83c-.08-.29-.17-.61-.26-1-.19-.53-.38-1-.56-1.38s-.39-.84-.6-1.36l-4.61-10.51a12.16,12.16,0,0,1-.72-2.06c-.15-.62-.3-1.33-.44-2.12a16.14,16.14,0,0,1-.24-2.09c0-.58,0-1.28,0-2.1v-7.77a6.25,6.25,0,0,1,.39-2.44,3,3,0,0,1,1.11-1.37,3.83,3.83,0,0,1,1.7-.6,18.12,18.12,0,0,1,2.18-.12,7,7,0,0,1,1.9.25,4.21,4.21,0,0,1,1.6.79,4,4,0,0,1,1.09,1.37,4.46,4.46,0,0,1,.4,2v12.31H953V519c0-.24,0-.62,0-1.15a6.34,6.34,0,0,0-.18-1.6,3.65,3.65,0,0,0-.7-1.44,1.85,1.85,0,0,0-1.53-.63,2.24,2.24,0,0,0-1.43.4,2.12,2.12,0,0,0-.65,1,3.65,3.65,0,0,0-.15,1.18c0,.4,0,.71,0,.95v6.43c0,.52,0,1,0,1.42s0,.86.07,1.29.1.85.18,1.28.18.9.3,1.39a9.25,9.25,0,0,0,.56,1.84c.23.55.48,1.12.74,1.71l5,11.42c.17.4.3.78.41,1.13s.19.73.26,1.12a9.3,9.3,0,0,1,.2,1.43c0,.39,0,.87,0,1.46v11.7A7.38,7.38,0,0,1,955,565.75Z" transform="translate(-794.5 -497)"/><path class="cls-3" d="M971.37,566.72V539.51h-4.89v27.21H963.6V513.28h2.88v24.43h4.89V513.28h2.88v53.44Z" transform="translate(-794.5 -497)"/><polygon class="cls-3" points="187.55 16.28 186.63 21.8 188.27 21.8 190.13 16.28 187.55 16.28"/><path class="cls-3" d="M1002,565.75c-.74,1-2,1.46-3.92,1.46a11.06,11.06,0,0,1-2.55-.26,4,4,0,0,1-1.76-.9,3.62,3.62,0,0,1-1-1.65,8.86,8.86,0,0,1-.32-2.57V549.42h2.88v12.83a5.34,5.34,0,0,0,.55,2.68,2.26,2.26,0,0,0,2.13.91,2,2,0,0,0,1.24-.33,2,2,0,0,0,.65-.87,4.18,4.18,0,0,0,.27-1.17c0-.44.05-.86.05-1.29V550.3c0-.35,0-.67,0-1s-.06-.56-.09-.82a7.85,7.85,0,0,0-.18-.83c-.08-.29-.17-.61-.26-1-.19-.53-.38-1-.56-1.38s-.39-.84-.6-1.36l-4.61-10.51a12.16,12.16,0,0,1-.72-2.06c-.15-.62-.3-1.33-.44-2.12a16.14,16.14,0,0,1-.24-2.09c0-.58,0-1.28,0-2.1v-7.77a6.25,6.25,0,0,1,.39-2.44,3,3,0,0,1,1.11-1.37,3.83,3.83,0,0,1,1.7-.6,18.12,18.12,0,0,1,2.18-.12,7,7,0,0,1,1.9.25,4.21,4.21,0,0,1,1.6.79,4,4,0,0,1,1.09,1.37,4.46,4.46,0,0,1,.4,2v12.31H1000V519c0-.24,0-.62,0-1.15a6.34,6.34,0,0,0-.18-1.6,3.65,3.65,0,0,0-.7-1.44,1.85,1.85,0,0,0-1.53-.63,2.24,2.24,0,0,0-1.43.4,2.12,2.12,0,0,0-.65,1,3.65,3.65,0,0,0-.15,1.18c0,.4,0,.71,0,.95v6.43c0,.52,0,1,0,1.42s0,.86.07,1.29.1.85.18,1.28.18.9.3,1.39a9.25,9.25,0,0,0,.56,1.84c.23.55.48,1.12.74,1.71l5,11.42c.17.4.3.78.41,1.13s.19.73.26,1.12a9.3,9.3,0,0,1,.2,1.43c0,.39,0,.87,0,1.46v11.7A7.38,7.38,0,0,1,1002,565.75Z" transform="translate(-794.5 -497)"/></svg>